<svg xmlns="http://www.w3.org/2000/svg" width="184.339" height="182.44" viewBox="0 0 184.339 182.44"><defs><style>.a{stroke:#fff;stroke-width:4px;}.b{fill:#eee9ff;}.c,.f{fill:#fff;}.d,.i,.j,.k,.l{fill:none;}.d{stroke:#000;stroke-linecap:round;stroke-width:2px;}.e{fill:#2a3c82;opacity:0.11;}.g{fill:#a86d3d;}.h{fill:#ff728c;}.i{stroke:#ffd469;}.j{stroke:#2a3c82;}.k{stroke:#4a9e8d;}.l{stroke:#ee2f40;}.m,.n{stroke:none;}.n{fill:#ee2f40;}</style></defs><g transform="translate(-1096.661 -264.56)"><path class="a" d="M142.912,101.664l-6.734-75.833a3.241,3.241,0,0,0-3.223-2.958H119.1a23.236,23.236,0,0,0-46.467,0H58.781a3.224,3.224,0,0,0-3.223,2.958l-6.734,75.833c0,.1-.024.192-.024.289,0,8.634,7.913,15.657,17.653,15.657h58.829c9.741,0,17.653-7.023,17.653-15.657A1.168,1.168,0,0,0,142.912,101.664ZM95.868,6.494a16.757,16.757,0,0,1,16.74,16.379H79.128A16.757,16.757,0,0,1,95.868,6.494Zm29.414,104.622H66.453c-6.109,0-11.063-4.041-11.16-9.019L61.739,29.39H72.611v9.861a3.247,3.247,0,1,0,6.494,0V29.39h33.5v9.861a3.247,3.247,0,0,0,6.494,0V29.39h10.871l6.47,72.706C136.346,107.075,131.367,111.116,125.282,111.116Z" transform="translate(1095.064 297.91)"/><path class="b" d="M-1427,12898.251l71.856.007,6.629,74.935a10,10,0,0,1-3.3,7.127c-3.447,3.205-8.625,3.688-8.625,3.688l-61.481.047a16.741,16.741,0,0,1-8.045-3.387,11.161,11.161,0,0,1-3.758-7.878Z" transform="translate(2582 -12573)"/><circle cx="6" cy="6" r="6" transform="translate(1170 362)"/><circle class="c" cx="2" cy="2" r="2" transform="translate(1176 365)"/><circle class="c" cx="1" cy="1" r="1" transform="translate(1173 371)"/><circle cx="6" cy="6" r="6" transform="translate(1199 362)"/><circle class="c" cx="2" cy="2" r="2" transform="translate(1205 365)"/><circle class="c" cx="1" cy="1" r="1" transform="translate(1202 371)"/><path class="d" d="M-1384.561,12798.406s2.217-2.69,5.281-2.69,5.38,2.69,5.38,2.69" transform="translate(2570 -12410)"/><path class="d" d="M-1410,12931.756a10.376,10.376,0,0,1,4.57-1.4,9.486,9.486,0,0,1,4.43,1.4" transform="translate(2582 -12573.756)"/><path class="d" d="M-1410,12931.756a10.606,10.606,0,0,1,4.508-1.283,10.5,10.5,0,0,1,4.492,1.283" transform="translate(2611 -12573.756)"/><ellipse class="e" cx="43" cy="6.5" rx="43" ry="6.5" transform="translate(1148 434)"/><g transform="translate(1113.234 264.56)"><g class="f" transform="translate(-8.633 106.163) rotate(-135)"><path class="m" d="M 9.611956596374512 10.72998905181885 L 1.618036389350891 10.72998905181885 C 1.366426467895508 10.72998905181885 1.236776471138 10.56414890289307 1.19270646572113 10.49284934997559 C 1.148646473884583 10.42155933380127 1.05829644203186 10.23142910003662 1.170816421508789 10.00638961791992 L 5.167776584625244 2.012469291687012 C 5.254316329956055 1.839399218559265 5.421496391296387 1.736069202423096 5.614996433258057 1.736069202423096 C 5.808496475219727 1.736069202423096 5.975676536560059 1.839399218559265 6.062216281890869 2.012469291687012 L 10.05917644500732 10.00638961791992 C 10.17169666290283 10.23142910003662 10.08134651184082 10.42155933380127 10.03728675842285 10.49284934997559 C 9.993216514587402 10.56414890289307 9.863566398620605 10.72998905181885 9.611956596374512 10.72998905181885 Z"/><path class="n" d="M 5.614996433258057 2.236068725585938 L 1.618316650390625 10.22998905181885 L 9.611831665039063 10.22973918914795 L 5.615006446838379 2.236079216003418 C 5.615004539489746 2.236075401306152 5.615003108978271 2.236072540283203 5.615001201629639 2.236069679260254 C 5.614999771118164 2.236069679260254 5.614997863769531 2.236068725585938 5.614996433258057 2.236068725585938 M 5.614996433258057 1.236071586608887 C 5.970078945159912 1.236071586608887 6.325161457061768 1.420333862304688 6.509426593780518 1.788859367370605 L 10.50638675689697 9.782779693603516 C 10.83883666992188 10.44767951965332 10.35533618927002 11.22998905181885 9.611956596374512 11.22998905181885 L 1.618036270141602 11.22998905181885 C 0.8746566772460938 11.22998905181885 0.3911561965942383 10.44767951965332 0.7236061096191406 9.782779693603516 L 4.720566272735596 1.788859367370605 C 4.904831409454346 1.420333862304688 5.259913921356201 1.236071586608887 5.614996433258057 1.236071586608887 Z"/></g><path class="g" d="M2.012,4.975a2.781,2.781,0,0,1,4.975,0h0A2.781,2.781,0,0,1,4.5,9h0A2.781,2.781,0,0,1,2.012,4.975Z" transform="translate(158.766 87.44) rotate(-90)"/><path class="h" d="M2.012,4.975a2.781,2.781,0,0,1,4.975,0h0A2.781,2.781,0,0,1,4.5,9h0A2.781,2.781,0,0,1,2.012,4.975Z" transform="translate(2.766 146.44) rotate(-90)"/><g transform="translate(140.003 22.084)"><line class="i" y2="11.23" transform="translate(5.615 0)"/><line class="i" x2="11.23" transform="translate(0 5.615)"/></g><g transform="translate(142.277 142.888)"><line class="j" y2="6.682" transform="translate(3.341 0)"/><line class="j" x2="6.682" transform="translate(0 3.341)"/></g><g transform="translate(6.531 26.736)"><line class="k" y1="4" transform="translate(7.235 -0.297)"/><line class="k" y1="4" transform="translate(7.235 8.703)"/><line class="k" x2="4" transform="translate(10.235 6.703)"/><line class="k" x2="5" transform="translate(0.235 6.703)"/></g><g transform="translate(72.069)"><line class="l" y1="4.097" transform="translate(7.681)"/><line class="l" y1="4.097" transform="translate(7.681 10.754)"/><line class="l" y1="3.073" x2="3.073" transform="translate(2.048 9.73)"/><line class="l" y1="3.073" x2="3.073" transform="translate(9.73 2.048)"/><line class="l" x2="4.097" transform="translate(10.754 7.681)"/><line class="l" x2="4.097" transform="translate(0 7.681)"/></g></g></g></svg>